<?xml version="1.0" encoding="utf-8"?>
<svg xmlns="http://www.w3.org/2000/svg" x="0px" y="0px" width="250.1px" height="106.77px">
<path fill="#0089CF" d="M54.02,12.89H6.88c-3.65,0-6.65-2.86-6.65-6.38c0-3.52,3-6.39,6.65-6.39h47.14
	c14.12,0,25.57,10.98,25.57,24.48c0,7.17-3.26,13.61-8.43,18.06c5.17,4.51,8.43,10.96,8.43,18.11c0,13.51-11.46,24.46-25.57,24.46
	H6.88c-3.65,0-6.65-2.83-6.65-6.38c0-3.52,3-6.37,6.65-6.37h47.14c6.75,0,12.24-5.28,12.24-11.71s-5.49-11.71-12.24-11.71H6.88
	c-3.65,0-6.65-2.86-6.65-6.4c0-3.53,3-6.38,6.65-6.38h28.75h18.4c6.75,0,12.24-5.22,12.24-11.68
	C66.26,18.14,60.77,12.89,54.02,12.89 M195.95,12.89h47.16c3.66,0,6.65-2.86,6.65-6.38c0-3.52-2.98-6.39-6.65-6.39h-47.16
	c-14.09,0-25.56,10.98-25.56,24.48c0,7.17,3.25,13.61,8.43,18.06c-5.19,4.51-8.43,10.96-8.43,18.11c0,13.51,11.47,24.46,25.56,24.46
	h47.16c3.66,0,6.65-2.83,6.65-6.38c0-3.52-2.98-6.37-6.65-6.37h-47.16c-6.73,0-12.23-5.28-12.23-11.71s5.49-11.71,12.23-11.71h47.16
	c3.66,0,6.65-2.86,6.65-6.4c0-3.53-2.98-6.38-6.65-6.38h-28.75h-18.41c-6.73,0-12.23-5.22-12.23-11.68
	C183.73,18.14,189.22,12.89,195.95,12.89 M111.51,12.89h47.16c3.72,0,6.7-2.86,6.7-6.38c0-3.54-2.97-6.4-6.7-6.4h-47.16
	c-14.05,0-25.53,11-25.53,24.5c0,13.48,11.48,24.46,25.53,24.46h28.29c6.72,0,12.23,5.27,12.23,11.71c0,6.45-5.5,11.71-12.23,11.71
	H92.64c-3.66,0-6.66,2.85-6.66,6.37c0,3.55,3,6.38,6.66,6.38h47.16c14.07,0,25.56-10.94,25.56-24.46
	c0-13.51-11.49-24.49-25.56-24.49h-28.29c-6.73,0-12.21-5.22-12.21-11.68C99.3,18.14,104.78,12.89,111.51,12.89"/>
<path fill="#DB5C1E" d="M1.67,95.06h11.6l-0.2,1.49H2.94l-0.49,3.58h10.11l-0.2,1.48H2.23l-0.52,3.59h10.14l-0.21,1.47H0.05
	L1.67,95.06z M26.99,95.07l-5.43,4.75l-4.09-4.75h-2.04l4.96,5.77l-6.64,5.83h2.13l5.44-4.75l4.08,4.75h2.03l-4.97-5.78l6.66-5.83
	H26.99z M41.5,95.42c2.17,0.6,2.46,1.94,2.31,2.95c-0.2,1.47-1.23,2.43-3.09,2.85c-0.97,0.26-2.41,0.38-4.29,0.38h-4.64l-0.72,5.06
	h-1.48l1.63-11.6h6.06C39.19,95.07,40.58,95.19,41.5,95.42 M37.19,100.13c1.13,0,2.11-0.1,3.02-0.32c0.9-0.2,2.02-0.62,2.14-1.5
	c0.05-0.28,0.16-1.12-1.87-1.54c-0.73-0.14-1.76-0.22-3.04-0.22H32.5l-0.52,3.58H37.19 M44.78,106.67h11.61l0.21-1.47H46.48
	l0.5-3.59H57.1l0.21-1.48H47.18l0.5-3.58h10.12l0.22-1.49H46.42L44.78,106.67z M71.17,95.42c2.18,0.6,2.46,1.94,2.33,2.95
	c-0.17,1.15-0.92,1.99-2.22,2.55c-0.9,0.32-2.02,0.54-3.35,0.63l4.4,5.12h-2.04l-4.36-5.06h-4.46l-0.71,5.06h-1.48l1.64-11.6h6.07
	C68.86,95.07,70.28,95.19,71.17,95.42 M72.03,98.31c0.04-0.28,0.15-1.12-1.9-1.54c-0.72-0.14-1.74-0.22-3.02-0.22h-4.95l-0.5,3.58
	h5.17c1.14,0,2.13-0.1,3.03-0.32C70.8,99.61,71.9,99.18,72.03,98.31 M75.18,106.67h1.49l1.63-11.61h-1.49L75.18,106.67z
	 M79.53,106.67h11.61l0.19-1.47H81.23l0.48-3.59h10.14l0.2-1.48H81.93l0.49-3.58h10.15l0.19-1.49H81.15L79.53,106.67z
	 M105.86,104.66l-8.78-9.59h-1.46L94,106.67h1.47l1.35-9.56l8.77,9.56h1.47l1.62-11.6h-1.46L105.86,104.66z M113.72,97.31
	c0.93-0.51,2.34-0.76,4.19-0.76c1.15,0,2.09,0.09,2.76,0.27c0.97,0.24,1.67,0.72,2.07,1.41l0.09,0.18l1.44-0.64l-0.11-0.2
	c-0.84-1.67-2.89-2.51-6.11-2.51c-2.25,0-4.04,0.41-5.28,1.17c-1.53,0.92-2.44,2.48-2.75,4.6c-0.3,2.14,0.2,3.73,1.48,4.66
	c1.04,0.79,2.67,1.17,4.98,1.17c3.19,0,5.46-0.8,6.77-2.44l0.19-0.23l-1.31-0.67l-0.13,0.15c-0.56,0.68-1.36,1.15-2.52,1.5
	c-0.69,0.15-1.64,0.22-2.85,0.22c-1.88,0-3.18-0.25-3.95-0.78c-1.04-0.67-1.43-1.82-1.18-3.53C111.73,99.17,112.47,98,113.72,97.31
	 M125.13,106.67h11.63l0.2-1.47h-10.14l0.51-3.59h10.11l0.22-1.48h-10.12l0.5-3.58h10.13l0.2-1.49h-11.61L125.13,106.67z
	 M147.2,96.55h5.78l-1.43,10.12h1.48l1.41-10.12h5.82l0.21-1.49h-13.07L147.2,96.55z M173.1,100.13H163l0.69-5.06h-1.47l-1.63,11.6
	h1.49l0.72-5.06h10.08l-0.71,5.06h1.48l1.63-11.6h-1.48L173.1,100.13z M176.52,106.67h11.6l0.21-1.47h-10.12l0.5-3.59h10.12
	l0.22-1.48h-10.13l0.5-3.58h10.12l0.22-1.49h-11.62L176.52,106.67z M210.11,104.66l-8.8-9.59h-1.44l-1.64,11.6h1.48l1.35-9.56
	l8.73,9.48l0.04,0.07h1.47l1.63-11.6h-1.48L210.11,104.66z M214.13,106.67h11.62l0.21-1.47h-10.12l0.5-3.59h10.11l0.21-1.48h-10.12
	l0.5-3.58h10.11l0.22-1.49h-11.62L214.13,106.67z M248.41,95.07l-6.03,9.87l-2.21-9.87h-1.55l-4.99,9.88l-3.24-9.88h-1.57
	l3.77,11.61h1.76l4.76-9.42l2.12,9.42h1.76l7.07-11.61H248.41z"/>
</svg>
