<?xml version="1.0" encoding="utf-8"?>
<!-- Generator: Adobe Illustrator 19.2.1, SVG Export Plug-In . SVG Version: 6.00 Build 0)  -->
<svg version="1.1" id="layer" xmlns="http://www.w3.org/2000/svg" xmlns:xlink="http://www.w3.org/1999/xlink" x="0px" y="0px"
	 viewBox="0 0 652 652" style="enable-background:new 0 0 652 652;" xml:space="preserve">
<style type="text/css">
	.st0{fill:#362D7E;}
	.st1{fill:#FEFEFE;}
	.st2{fill:#E65C1B;}
	.st3{fill:#ECAE0E;}
	.st4{fill:#E31D25;}
</style>
<g>
	<g>
		<g>
			<polygon class="st0" points="346.7,340.6 346.7,340.6 292.4,254.3 266.7,254.3 266.7,389.5 295.3,389.5 293.8,303.2 347.5,389.5 
				372.5,389.5 372.5,254.3 343.9,254.3 			"/>
		</g>
		<g>
			<path class="st0" d="M460.7,307.5L460.7,307.5l-13.8-3.2c-12-2.5-18.3-3.9-20.8-8.4c-1.1-1.4-1.4-3.2-1.4-4.9s0.4-3.2,1.1-4.9
				c4.6-8.1,18.3-8.8,21.2-8.8h0.4c20.5,0,28.9,14.1,32.1,18.7l1.1,1.8l24-17.6l-1.4-1.8c-13.4-18.3-31.4-27.4-54.7-27.4
				c-31.7,0-44.4,15.8-48.7,22.5c-4.6,8.1-5.3,16.9-5.3,20.4c0,19.4,12.7,28.5,20.1,32.4c5.6,3.2,12.3,4.6,19,6l16.9,3.9
				c0.7,0.4,1.8,0.4,2.8,0.7c6,1.1,15.2,3.2,18.7,7.4c1.8,2.5,1.8,5.6,1.8,6.7c0,10.9-12.3,13.7-13.8,14.1c-1.8,0.4-4.6,1.1-9.2,1.1
				c-23.6,0-33.5-10.9-38.8-18.7l-1.4-2.1l-24,16.9l1.1,1.8c1.8,2.8,3.9,6,6.7,8.8c8.8,9.2,25,20.1,52.6,20.1
				c22.9,0,36.7-7.4,44.5-14.1c9.2-7.7,13.4-17.6,13.4-30.3c0-13-4.2-19.4-8.1-23.6C487.5,314.2,473.4,310.3,460.7,307.5z"/>
		</g>
		<g>
			<polygon class="st0" points="549.9,363.1 549.9,363.1 549.9,332.5 609.9,332.5 609.9,306.8 549.9,306.8 549.9,280.4 615.9,280.4 
				615.9,254.3 521.4,254.3 521.4,389.5 620.5,389.5 620.5,363.1 			"/>
		</g>
		<g>
			<polygon class="st1" points="122.1,366.6 122.1,366.6 77.3,321.9 122.1,277.2 166.9,321.9 			"/>
		</g>
		<g>
			<polygon class="st2" points="194.4,249.8 194.4,249.8 122.4,220.6 50.1,250.1 122.1,277.2 			"/>
		</g>
		<g>
			<polygon class="st0" points="166.9,321.9 166.9,321.9 194.4,249.8 122.1,277.2 			"/>
		</g>
		<g>
			<polygon class="st3" points="122.1,366.6 122.1,366.6 194.4,393.7 166.9,321.9 			"/>
		</g>
		<g>
			<polygon class="st3" points="122.1,277.2 122.1,277.2 50.1,250.1 77.3,321.9 			"/>
		</g>
		<g>
			<path class="st4" d="M50.1,250.1L50.1,250.1c-0.4-0.4-29.6,71.8-29.6,71.8l29.6,71.8l27.2-71.8L50.1,250.1z"/>
		</g>
		<g>
			<polygon class="st3" points="77.3,321.9 77.3,321.9 50.1,393.7 122.1,366.6 			"/>
		</g>
		<g>
			<polygon class="st4" points="50.1,393.7 50.1,393.7 122.1,423.2 194.4,393.7 122.1,366.6 			"/>
		</g>
		<g>
			<polygon class="st2" points="194.4,249.8 194.4,249.8 166.9,321.9 194.4,393.7 224,321.9 			"/>
		</g>
	</g>
</g>
</svg>
